<?xml version="1.0" encoding="utf-8"?>
<svg viewBox="-0.502 -0.502 400 447.368" xmlns="http://www.w3.org/2000/svg">
  <g id="svgg">
    <path id="path0" d="M 195.508 10.815 C 192.264 12.039 190.38 14.262 190.377 16.869 C 190.377 17.702 190.075 19.126 189.708 20.032 C 188.542 22.903 189.483 23.455 194.911 23.083 C 197.292 22.921 200.618 22.721 202.299 22.64 C 206.948 22.417 209.469 19.257 209.89 13.119 C 210.046 10.857 199.761 9.209 195.508 10.815 M 174.587 12.533 C 169.039 13.453 167.743 14.751 167.31 19.823 C 167.176 21.387 166.913 22.905 166.727 23.198 C 165.802 24.64 166.799 25.715 169.049 25.7 C 180.614 25.625 185.429 23.163 185.429 17.322 C 185.429 16.585 185.79 15.398 186.229 14.684 C 187.968 11.868 183.529 11.049 174.587 12.533 M 216.021 13.042 C 215.272 13.731 214.518 15.05 214.122 16.361 C 213.763 17.556 213.191 18.837 212.853 19.206 C 210.371 21.909 211.905 23.682 216.726 23.682 C 218.748 23.682 221.235 23.949 222.366 24.288 C 226.172 25.425 229.564 24.553 230.842 22.107 C 231.148 21.521 232.001 19.973 232.738 18.667 C 235.192 14.316 234.589 13.394 228.717 12.528 C 221.63 11.484 217.534 11.65 216.021 13.042 M 241.677 15.385 C 240.075 16.044 237.592 18.734 236.748 20.722 C 236.392 21.562 235.733 22.635 235.284 23.105 C 233.136 25.358 237.531 26.933 245.967 26.933 C 251.809 26.933 253.665 26.584 254.449 25.339 C 254.655 25.011 255.565 23.951 256.471 22.982 C 259.255 20.006 257.823 18.672 250.221 17.158 C 248.033 16.722 245.904 16.175 245.492 15.941 C 243.851 15.009 242.92 14.874 241.677 15.385 M 157.806 15.815 C 157.012 16.165 154.737 16.792 152.751 17.21 C 148.764 18.049 148.028 18.357 145.706 20.151 L 144.119 21.377 L 144.263 26.369 C 144.429 32.147 144.597 32.47 147.003 31.635 C 147.945 31.306 149.973 30.732 151.509 30.358 C 153.045 29.983 154.486 29.537 154.713 29.366 C 154.94 29.196 155.868 28.933 156.775 28.782 C 161.105 28.062 162.493 26.075 162.693 20.31 C 162.813 16.869 162.72 15.786 162.286 15.514 C 161.424 14.976 159.408 15.112 157.806 15.815 M 134.512 22.996 C 133.832 23.264 132.493 23.895 131.539 24.395 C 130.584 24.897 129.587 25.307 129.322 25.307 C 128.646 25.307 123.949 27.685 123.033 28.491 C 122.232 29.194 122.241 32.257 123.057 37.903 C 123.435 40.515 124.437 40.775 127.92 39.162 C 128.932 38.693 129.952 38.309 130.186 38.309 C 130.42 38.309 131.303 37.884 132.149 37.364 C 132.995 36.845 134.522 36.193 135.543 35.916 C 138.807 35.027 139.683 33.281 139.787 27.453 L 139.871 22.667 L 137.81 22.586 C 136.676 22.543 135.192 22.727 134.512 22.996 M 262.217 23.069 C 261.021 23.581 260.877 23.82 260.877 25.288 L 260.877 26.933 L 267.497 26.933 L 274.117 26.933 L 272.754 25.318 C 270.548 22.705 265.555 21.64 262.217 23.069 M 114.103 32.181 C 112.358 33.425 107.276 36.277 106.808 36.277 C 106.084 36.277 101.482 40.873 101.23 41.847 C 101.101 42.34 101.328 43.437 101.733 44.285 C 102.776 46.461 103.381 48.414 103.398 49.645 C 103.434 52.683 104.253 52.611 109.774 49.079 C 111.588 47.919 113.39 46.857 113.778 46.721 C 117.914 45.265 119.996 41.704 118.865 38.017 C 118.468 36.725 118.004 34.873 117.833 33.9 C 117.381 31.35 116.099 30.759 114.103 32.181 M 94.989 44.193 C 94.112 44.497 92.907 45.181 92.309 45.714 C 91.711 46.247 90.201 47.442 88.954 48.372 C 82.37 53.278 81.431 55.086 83.352 59.157 C 83.898 60.316 84.572 62.133 84.849 63.195 C 85.605 66.104 87.37 65.982 90.886 62.777 C 92.29 61.498 94.468 59.65 95.726 58.669 C 96.983 57.688 98.479 56.102 99.049 55.144 L 100.084 53.402 L 98.849 50.359 C 98.169 48.685 97.612 46.786 97.612 46.14 C 97.612 44.104 96.859 43.545 94.989 44.193 M 296.664 50.985 C 297.048 51.364 297.269 51.364 297.653 50.985 C 298.037 50.606 297.928 50.498 297.159 50.498 C 296.388 50.498 296.279 50.606 296.664 50.985 M 75.712 59.775 C 73.536 61.356 70.782 63.986 66.94 68.151 C 64.57 70.721 64.558 73.929 66.909 76.106 C 67.469 76.625 67.928 77.337 67.928 77.689 C 67.932 79.134 69.526 80.97 70.778 80.97 C 71.943 80.97 73.288 80.09 73.288 79.33 C 73.288 79.129 74.91 77.375 76.895 75.432 C 82.648 69.797 83.358 67.179 80.126 63.514 C 79.824 63.171 79.342 62.158 79.057 61.265 C 78.124 58.333 77.858 58.214 75.712 59.775 M 321.742 60.05 C 321.091 60.384 319.891 61.297 319.075 62.078 C 318.258 62.86 317.446 63.499 317.27 63.499 C 316.706 63.499 316.926 66.264 317.532 66.822 C 317.854 67.117 320.066 69.233 322.448 71.524 C 327.194 76.087 329.008 76.802 331.145 74.951 C 331.981 74.226 334.084 73.302 336.532 72.583 C 339.797 71.624 337.751 68.38 329.406 61.288 C 326.976 59.222 324.219 58.777 321.742 60.05 M 268.504 60.427 C 267.259 60.983 264.403 63.547 262.565 65.759 C 259.947 68.91 259.206 73.77 260.969 76.235 C 263.848 80.261 268.538 81.89 270.928 79.695 C 271.376 79.284 272.06 78.848 272.447 78.727 C 274.144 78.196 276.347 72.187 277.481 64.998 L 278.045 61.419 L 276.921 60.631 C 275.559 59.675 270.465 59.551 268.504 60.427 M 59.763 76.459 C 58.355 77.177 55.772 80.115 54.37 82.595 C 53.929 83.377 53.18 84.248 52.707 84.528 C 52.235 84.809 51.848 85.288 51.848 85.591 C 51.848 85.894 51.505 86.578 51.085 87.111 C 49.446 89.191 50.474 93.468 53.053 95.299 C 53.441 95.574 54.192 96.567 54.721 97.503 L 55.685 99.206 L 57.229 98.43 C 58.079 98.003 59.204 96.962 59.728 96.117 C 60.253 95.273 60.921 94.339 61.212 94.045 C 61.504 93.749 62.225 92.698 62.813 91.708 C 63.402 90.718 64.061 89.908 64.28 89.908 C 66.374 89.908 66.592 83.736 64.582 81.264 C 63.897 80.42 62.973 78.92 62.528 77.929 C 61.512 75.667 61.418 75.616 59.763 76.459 M 338.621 76.31 C 337.728 76.644 336.69 77.192 336.311 77.53 C 335.932 77.867 334.826 78.37 333.851 78.648 C 331.287 79.38 330.946 80.162 332.436 81.894 C 333.102 82.667 334.202 83.986 334.883 84.823 C 336.51 86.825 337.415 87.903 338.303 88.893 C 338.704 89.34 339.336 90.181 339.708 90.761 C 340.856 92.55 343.315 92.949 347.172 91.967 C 353.351 90.396 354.509 89.024 351.916 86.35 C 351.105 85.514 350.204 84.373 349.916 83.814 C 349.34 82.702 347.343 80.214 344.983 77.669 C 343.209 75.757 341.231 75.335 338.621 76.31 M 236.14 76.917 C 231.542 77.681 223.829 79.488 222.328 80.153 C 221.421 80.554 219.482 81.183 218.017 81.549 C 216.553 81.916 215.069 82.465 214.719 82.771 C 214.369 83.078 213.248 83.559 212.227 83.842 C 211.207 84.125 209.816 84.748 209.136 85.228 C 208.455 85.706 207.249 86.345 206.455 86.647 C 205.661 86.949 204.642 87.493 204.188 87.856 C 203.735 88.218 202.016 89.409 200.369 90.501 C 198.723 91.593 196.775 93.02 196.04 93.673 C 195.306 94.326 194.427 95.071 194.087 95.329 C 193.747 95.588 192.264 97.171 190.792 98.847 C 189.32 100.523 187.743 102.228 187.287 102.637 C 177.707 111.233 174.55 115.98 173.865 122.818 C 173.489 126.555 174.099 133.449 174.945 135.062 C 175.288 135.717 175.937 137.428 176.387 138.863 C 176.838 140.299 177.39 141.586 177.614 141.722 C 177.84 141.859 178.465 142.827 179.003 143.873 C 181.073 147.888 187.938 154.278 192.438 156.375 C 193.685 156.956 194.802 157.586 194.919 157.774 C 196.117 159.679 205.915 160.072 210.525 158.398 C 211.349 158.099 213.413 157.347 215.114 156.728 C 216.814 156.108 218.898 155.173 219.743 154.65 C 220.589 154.125 221.475 153.697 221.712 153.697 C 221.948 153.697 223.086 153.057 224.241 152.275 C 225.394 151.493 226.508 150.853 226.716 150.853 C 227.062 150.853 229.297 149.233 232.772 146.463 C 235.099 144.608 237.258 142.208 238.364 140.25 C 238.793 139.49 239.467 138.501 239.862 138.054 C 240.256 137.607 240.866 136.68 241.219 135.993 C 241.57 135.307 242.145 134.509 242.496 134.222 C 242.849 133.935 243.543 132.896 244.04 131.915 C 244.537 130.934 245.071 130.132 245.226 130.132 C 245.381 130.132 245.951 129.309 246.492 128.303 C 247.034 127.298 247.612 126.475 247.778 126.475 C 247.944 126.475 248.479 125.698 248.969 124.748 C 249.458 123.799 250.291 122.51 250.823 121.885 C 251.353 121.259 252.091 120.116 252.463 119.346 C 252.833 118.574 253.283 117.943 253.461 117.943 C 253.639 117.943 254.192 117.166 254.69 116.216 C 255.187 115.266 255.926 114.124 256.332 113.677 C 256.738 113.23 257.351 112.316 257.695 111.644 C 258.038 110.974 258.71 110.077 259.186 109.651 C 259.663 109.226 260.052 108.665 260.052 108.405 C 260.052 108.145 260.666 107.214 261.415 106.335 C 264.156 103.121 264.641 95.561 262.286 92.752 C 262.004 92.417 261.321 91.137 260.767 89.908 C 260.212 88.679 259.362 87.325 258.876 86.9 C 258.389 86.474 257.987 85.926 257.983 85.681 C 257.979 85.436 257.097 84.366 256.024 83.302 C 249.725 77.053 244.814 75.477 236.14 76.917 M 352.199 95.078 C 351.745 95.187 350.625 95.61 349.71 96.016 C 348.795 96.423 347.56 96.876 346.967 97.024 C 345.113 97.482 345.293 98.578 347.849 102.407 C 349.157 104.365 350.349 106.353 350.501 106.824 C 350.653 107.294 351.143 108.005 351.59 108.404 C 352.039 108.803 352.404 109.348 352.404 109.614 C 352.404 111.43 357.194 112.001 363.124 110.891 C 366.251 110.304 366.612 109.649 365.152 107.211 C 364.657 106.384 363.859 104.997 363.379 104.131 C 362.898 103.263 361.974 101.591 361.322 100.415 C 358.436 95.194 356.471 94.046 352.199 95.078 M 44.011 96.917 C 43.561 97.643 43.193 98.438 43.192 98.682 C 43.192 98.927 42.836 99.443 42.404 99.829 C 41.971 100.214 41.229 101.421 40.754 102.51 C 40.278 103.599 39.716 104.594 39.506 104.723 C 39.294 104.852 38.743 105.949 38.283 107.163 C 37.182 110.062 37.61 111.326 40.717 114.347 C 42.014 115.611 43.505 117.237 44.029 117.963 L 44.983 119.283 L 45.951 118.104 C 46.486 117.457 47.11 116.698 47.341 116.417 C 47.965 115.661 49.787 112 49.787 111.505 C 49.787 111.269 50.021 110.93 50.306 110.751 C 50.593 110.573 51.266 109.421 51.804 108.192 C 52.341 106.963 52.958 105.575 53.172 105.109 C 53.649 104.08 52.295 100.964 50.761 99.557 C 50.213 99.055 49.365 97.958 48.876 97.12 C 47.633 94.992 45.263 94.893 44.011 96.917 M 166.692 98.371 C 166.322 99.522 166.85 100.416 167.365 99.508 C 167.593 99.108 167.59 98.58 167.358 98.171 C 167.018 97.572 166.942 97.595 166.692 98.371 M 127.709 110.495 C 124.485 110.721 120.973 111.533 118.961 112.52 C 117.892 113.045 116.779 113.477 116.487 113.481 C 115.888 113.488 110.837 116.418 108.79 117.946 C 105.012 120.767 97.612 129.4 97.612 130.987 C 97.612 131.23 97.226 131.961 96.756 132.613 C 96.286 133.264 95.432 135.212 94.859 136.942 C 94.286 138.671 93.63 140.433 93.4 140.859 C 92.129 143.203 91.438 155.892 92.271 161.541 C 92.672 164.256 95.371 170.759 96.345 171.351 C 97.488 172.048 100.498 169.429 100.498 167.738 C 100.498 167.467 100.934 166.842 101.468 166.349 C 102.001 165.855 102.673 164.746 102.961 163.885 C 103.25 163.023 103.927 161.813 104.467 161.195 C 105.004 160.576 105.446 159.846 105.446 159.571 C 105.446 159.296 106.095 158.14 106.888 157.003 C 107.682 155.865 108.332 154.684 108.332 154.377 C 108.332 154.07 108.85 153.106 109.485 152.234 C 110.119 151.363 110.881 150.061 111.178 149.342 C 111.475 148.624 111.983 147.82 112.306 147.555 C 112.629 147.291 113.332 146.233 113.866 145.205 C 114.402 144.177 115.381 142.292 116.042 141.015 C 116.704 139.739 117.552 138.361 117.927 137.953 C 118.3 137.546 118.911 136.487 119.28 135.601 C 119.652 134.716 120.277 133.626 120.673 133.179 C 121.068 132.732 121.641 131.726 121.945 130.944 C 122.25 130.162 122.897 129.044 123.383 128.459 C 123.868 127.874 124.518 126.777 124.826 126.021 C 125.135 125.265 125.816 124.13 126.341 123.498 C 126.867 122.866 127.297 122.11 127.297 121.817 C 127.297 121.524 127.921 120.391 128.682 119.3 C 129.444 118.208 130.194 116.923 130.347 116.446 C 130.501 115.967 131.177 114.896 131.848 114.063 C 133.629 111.853 133.093 110.138 130.668 110.294 C 130.061 110.333 128.729 110.423 127.709 110.495 M 327.096 110.631 C 325.353 110.845 323.261 111.461 321.685 112.226 C 320.271 112.913 318.94 113.474 318.727 113.474 C 318.16 113.474 314.733 116.696 313.54 118.349 C 310.85 122.082 311.9 124.483 318.923 130.64 C 322.707 133.957 330.544 130.054 334.124 123.07 C 334.481 122.372 335.091 121.437 335.479 120.99 C 337.163 119.052 337.762 113.069 336.428 111.49 C 335.555 110.455 331.538 110.085 327.096 110.631 M 364.154 115.498 C 363.701 115.686 362.081 115.969 360.555 116.13 C 356.352 116.571 356.254 116.731 357.905 120.469 C 358.668 122.194 359.473 123.839 359.697 124.126 C 359.92 124.412 360.421 125.652 360.809 126.881 C 361.197 128.11 362.15 129.847 362.926 130.741 L 364.338 132.366 L 368.972 132.278 C 372.608 132.209 375.917 131.694 375.904 131.199 C 375.903 131.171 375.325 129.685 374.62 127.897 C 373.914 126.109 372.847 123.367 372.25 121.803 C 370.217 116.491 367.284 114.206 364.154 115.498 M 33.394 116.419 C 31.86 119.517 29.996 124.049 29.992 124.697 C 29.99 125.117 29.552 126.207 29.023 127.121 C 26.49 131.486 27.287 132.979 35.018 138.359 C 37.002 139.741 37.163 139.742 37.794 138.379 C 38.86 136.073 41.129 130.126 41.131 129.633 C 41.132 129.349 41.59 128.385 42.149 127.491 C 43.997 124.535 43.461 123.094 39.06 119.162 C 34.793 115.349 34.092 115.01 33.394 116.419 M 155.129 118.077 C 154.813 118.82 154.287 119.649 153.958 119.917 C 153.629 120.187 152.969 121.304 152.49 122.402 C 152.011 123.499 151.418 124.519 151.174 124.668 C 150.929 124.817 150.369 125.766 149.93 126.776 C 149.491 127.785 148.672 129.15 148.109 129.809 C 147.546 130.468 147.086 131.291 147.086 131.638 C 147.086 131.985 146.437 133.16 145.644 134.248 C 144.85 135.337 144.2 136.438 144.2 136.696 C 144.2 136.954 143.765 137.73 143.231 138.422 C 142.699 139.114 141.874 140.548 141.399 141.609 C 140.925 142.671 140.376 143.539 140.183 143.539 C 139.988 143.539 139.498 144.443 139.095 145.549 C 138.692 146.653 138.078 147.788 137.733 148.072 C 137.387 148.354 136.681 149.529 136.163 150.683 C 135.646 151.836 135 152.915 134.731 153.08 C 134.459 153.245 133.888 154.184 133.46 155.167 C 133.033 156.149 132.333 157.322 131.908 157.773 C 131.481 158.224 130.886 159.329 130.584 160.228 C 130.283 161.127 129.806 161.99 129.521 162.148 C 129.238 162.304 128.608 163.346 128.123 164.464 C 127.638 165.581 126.898 166.861 126.477 167.308 C 126.057 167.755 125.4 168.897 125.017 169.847 C 124.635 170.797 124.179 171.574 124.005 171.574 C 123.831 171.574 123.292 172.48 122.809 173.587 C 122.325 174.694 121.68 175.745 121.373 175.923 C 120.695 176.316 120.175 178.894 120.631 179.602 C 120.876 179.983 121.21 179.853 121.933 179.094 C 122.468 178.534 123.158 178.074 123.466 178.074 C 124.091 178.074 125.841 177.038 127.065 175.944 C 127.505 175.551 128.074 175.23 128.331 175.23 C 128.587 175.23 129.53 174.636 130.425 173.91 C 131.32 173.184 132.355 172.407 132.723 172.183 C 137.688 169.175 147.052 159.738 149.557 155.22 C 150.021 154.382 150.563 153.697 150.76 153.697 C 150.956 153.697 151.527 152.839 152.027 151.79 C 152.528 150.742 153.361 149.325 153.878 148.641 C 154.394 147.959 155.035 146.728 155.302 145.908 C 155.568 145.088 156.024 144.222 156.317 143.984 C 156.607 143.746 157.08 142.771 157.366 141.819 C 157.652 140.866 158.356 138.989 158.928 137.648 C 160.686 133.528 160.82 121.209 159.126 119.237 C 158.74 118.786 158.102 118.036 157.707 117.571 C 156.674 116.352 155.786 116.526 155.129 118.077 M 292.623 128.909 C 290.242 129.529 287.274 130.514 286.027 131.096 C 284.78 131.679 283.513 132.157 283.215 132.159 C 282.915 132.161 280.032 133.443 276.807 135.007 C 273.582 136.571 270.789 137.851 270.601 137.851 C 269.184 137.851 261.961 144.18 261.067 146.206 C 260.831 146.74 260.122 147.707 259.493 148.355 C 258.569 149.305 258.373 149.837 258.479 151.107 L 258.61 152.681 L 282.729 152.894 C 307.543 153.115 308.217 153.16 310.658 154.815 C 311.283 155.238 312.444 155.88 313.238 156.242 C 314.031 156.604 315.003 157.276 315.398 157.736 C 316.714 159.27 317.519 158.581 318.269 155.281 C 319.505 149.851 318.171 140.1 315.941 138.277 C 315.587 137.988 315.299 137.508 315.299 137.209 C 315.299 136.633 310.798 132.169 310.212 132.165 C 310.023 132.164 309.095 131.618 308.151 130.95 C 304.149 128.122 298.494 127.379 292.623 128.909 M 371.988 137.055 C 371.534 137.238 370.203 137.4 369.029 137.417 C 365.411 137.465 365.052 139.781 367.715 145.901 C 368.137 146.874 368.483 147.974 368.481 148.347 C 368.47 152.004 370.381 153.633 375.268 154.135 C 377.072 154.319 379.135 154.783 379.853 155.164 C 382.434 156.534 383.419 153.871 381.822 149.837 C 381.467 148.943 380.908 147.115 380.579 145.774 C 379.398 140.978 379.192 140.385 378.342 139.32 C 376.889 137.498 373.703 136.363 371.988 137.055 M 25.27 138.235 C 23.94 140.356 21.363 150.165 21.349 153.161 C 21.337 155.688 22.715 157.017 27.94 159.524 C 32.37 161.651 32.151 161.838 33.24 154.991 C 33.502 153.357 33.975 151.521 34.294 150.914 C 36.541 146.633 35.099 143.318 29.663 140.258 C 28.578 139.647 27.443 138.856 27.143 138.499 C 26.535 137.777 25.638 137.65 25.27 138.235 M 372.298 159.072 C 371.161 159.607 371.154 160.245 372.228 165.886 C 372.674 168.232 373.138 170.7 373.258 171.371 C 373.74 174.067 373.9 174.447 375.046 175.603 C 375.766 176.327 376.867 176.91 377.824 177.073 C 378.696 177.221 380.489 177.606 381.809 177.93 C 385.551 178.846 385.802 178.643 385.784 174.695 C 385.73 163.093 384.202 160.086 378.007 159.39 C 376.118 159.177 374.269 158.921 373.899 158.819 C 373.528 158.719 372.808 158.832 372.298 159.072 M 19.773 161.114 C 19.172 161.829 18.959 162.809 17.866 169.949 L 16.9 176.246 L 17.913 177.993 C 18.587 179.157 19.43 179.952 20.441 180.374 C 21.276 180.724 22.896 181.426 24.044 181.937 C 28.655 183.989 29.63 182.385 30.183 171.842 C 30.475 166.279 30.251 165.923 24.638 163.003 C 23.617 162.473 22.34 161.715 21.799 161.321 C 20.63 160.469 20.342 160.439 19.773 161.114 M 233.697 175.535 C 230.642 177.989 233.671 193.619 237.677 196.075 C 237.97 196.256 238.626 196.834 239.134 197.36 C 240.79 199.077 244.039 201.292 245.777 201.889 C 246.712 202.21 248.279 202.841 249.258 203.29 C 253.319 205.154 260.647 205.215 265.251 203.423 C 266.635 202.884 268.725 202.163 269.894 201.82 C 271.064 201.478 272.646 200.657 273.408 199.997 C 274.172 199.336 274.909 198.796 275.046 198.796 C 275.183 198.796 280.215 193.95 286.228 188.029 C 292.243 182.107 297.328 177.262 297.528 177.262 C 298.225 177.262 298.358 176.064 297.73 175.446 C 296.695 174.426 234.971 174.513 233.697 175.535 M 375.051 181.562 C 374.088 182.703 373.96 194.605 374.889 196.536 C 376.484 199.847 385.323 203.259 386.717 201.099 C 387.355 200.11 387.087 186.748 386.418 186.2 C 386.078 185.922 385.799 185.45 385.799 185.151 C 385.799 184.214 384.051 182.951 382.733 182.937 C 382.038 182.93 380.45 182.555 379.203 182.105 C 377.956 181.655 376.644 181.191 376.288 181.074 C 375.933 180.957 375.376 181.177 375.051 181.562 M 17.095 184.95 C 16.502 185.938 16.392 187.274 16.392 193.431 L 16.392 200.741 L 17.526 201.902 C 19.43 203.851 19.999 204.152 22.465 204.511 C 23.774 204.702 25.4 204.968 26.08 205.103 C 28.635 205.608 28.885 204.965 28.863 197.929 C 28.838 189.083 28.033 187.702 21.904 185.977 C 20.572 185.602 19.105 184.954 18.64 184.537 C 17.811 183.79 17.786 183.796 17.095 184.95 M 316.489 198.164 C 316.388 198.263 315.012 198.548 313.431 198.796 C 311.851 199.044 310.093 199.487 309.526 199.782 C 305.788 201.721 304.449 202.578 303.013 203.951 C 301.078 205.802 299.445 209.27 299.751 210.876 C 300.196 213.198 301.21 215.192 302.212 215.709 C 302.78 216.001 303.35 216.512 303.479 216.842 C 304.028 218.254 309.768 218.826 311.996 217.691 C 315.676 215.815 319.058 210.938 320.403 205.566 C 320.785 204.039 321.39 202.35 321.748 201.811 C 322.685 200.402 322.202 199.068 320.54 198.476 C 319.177 197.99 316.848 197.81 316.489 198.164 M 87.607 202.619 C 87.229 202.992 86.202 203.702 85.327 204.195 C 81.355 206.437 75.65 211.962 73.076 216.063 C 72.654 216.733 72.011 217.648 71.647 218.095 C 71.281 218.541 70.736 219.638 70.435 220.532 C 70.134 221.426 69.647 222.432 69.354 222.767 C 68.555 223.68 65.488 232.923 65.227 235.203 C 64.565 240.983 64.138 244.362 63.769 246.738 C 63.198 250.404 64.648 256.114 66.736 258.415 C 70.224 262.261 73.236 263.267 82.77 263.768 C 90.352 264.167 97.991 265.644 100.498 267.195 C 101.292 267.687 102.652 268.45 103.519 268.892 C 105.616 269.957 110.235 274.461 112.07 277.227 C 115.567 282.497 116.481 283.994 116.782 284.94 C 116.959 285.494 117.541 286.463 118.077 287.095 C 118.613 287.726 119.05 288.398 119.05 288.588 C 119.05 289.552 122.712 292.28 124.823 292.889 C 126.07 293.249 127.184 293.672 127.297 293.829 C 127.664 294.338 130.49 295.494 131.365 295.494 C 132.353 295.494 135.32 291.861 135.762 290.11 C 135.916 289.496 136.2 288.993 136.391 288.993 C 136.581 288.993 137.309 287.812 138.009 286.368 C 138.708 284.924 139.454 283.637 139.667 283.507 C 139.879 283.377 140.439 282.413 140.91 281.363 C 141.382 280.314 142.098 279.088 142.504 278.638 C 142.91 278.188 143.492 277.18 143.796 276.398 C 144.102 275.616 144.78 274.459 145.307 273.827 C 145.832 273.195 146.262 272.44 146.262 272.146 C 146.262 271.854 146.911 270.683 147.705 269.547 C 148.498 268.409 149.147 267.229 149.147 266.923 C 149.147 266.616 149.518 266.036 149.97 265.632 C 150.424 265.229 151.261 263.893 151.832 262.665 C 152.402 261.436 153.116 260.229 153.418 259.984 C 153.721 259.738 154.212 258.897 154.51 258.115 C 154.807 257.333 155.486 256.111 156.016 255.4 C 156.548 254.688 156.981 253.947 156.981 253.752 C 156.981 253.557 157.572 252.494 158.294 251.388 C 159.81 249.068 161.112 246.814 162.269 244.504 C 162.718 243.61 163.566 242.249 164.156 241.479 C 164.744 240.71 165.226 239.862 165.226 239.595 C 165.226 239.329 165.876 238.18 166.67 237.043 C 167.464 235.906 168.113 234.76 168.113 234.496 C 168.113 234.233 168.542 233.452 169.065 232.76 C 169.59 232.068 170.419 230.648 170.908 229.604 C 171.397 228.561 171.989 227.591 172.222 227.448 C 172.454 227.306 173.04 226.286 173.522 225.181 C 174.004 224.077 174.539 223.173 174.712 223.173 C 175.352 223.173 177.131 218.798 176.883 217.835 C 176.479 216.258 176.939 216.278 142.282 216.272 C 106.643 216.266 102.269 216.038 100.289 214.086 C 99.948 213.75 99.252 213.353 98.744 213.204 C 97.496 212.837 92.335 207.833 91.637 206.312 C 90.469 203.768 88.382 201.855 87.607 202.619 M 375.08 204.58 C 374.346 205.672 373.982 207.679 373.482 213.422 C 373.277 215.769 372.983 217.991 372.829 218.361 C 372.338 219.536 375.734 223.173 377.32 223.173 C 377.942 223.173 378.924 223.681 379.681 224.392 C 381.001 225.635 383.78 226.125 384.351 225.215 C 384.775 224.537 385.799 215.435 385.799 212.339 C 385.799 207.795 385.08 207.006 378.997 204.881 C 377.864 204.485 376.657 204.049 376.316 203.911 C 375.935 203.757 375.459 204.014 375.08 204.58 M 209.079 208.242 C 208.476 209.192 207.85 210.06 207.689 210.172 C 207.527 210.284 207.144 211.069 206.837 211.917 C 206.529 212.764 205.935 213.82 205.517 214.262 C 205.098 214.705 204.472 215.748 204.123 216.58 C 203.775 217.413 203.146 218.462 202.725 218.912 C 202.303 219.362 201.651 220.458 201.274 221.347 C 200.898 222.236 200.146 223.482 199.605 224.115 C 199.064 224.749 198.622 225.532 198.622 225.855 C 198.622 226.179 197.973 227.373 197.179 228.511 C 196.385 229.648 195.736 230.807 195.736 231.087 C 195.736 231.367 195.366 232.059 194.914 232.625 C 194.029 233.735 192.2 236.896 190.746 239.831 C 190.248 240.837 189.531 241.934 189.154 242.269 C 188.775 242.604 188.14 243.701 187.74 244.707 C 187.34 245.712 186.686 246.901 186.287 247.348 C 185.888 247.795 185.317 248.8 185.018 249.582 C 184.718 250.365 184.06 251.462 183.556 252.02 C 183.052 252.579 182.395 253.722 182.096 254.56 C 181.797 255.398 181.392 256.083 181.198 256.083 C 181.002 256.083 180.284 257.226 179.601 258.623 C 177.992 261.909 175.913 265.549 175.096 266.503 C 174.741 266.917 174.111 268.033 173.694 268.983 C 173.277 269.933 172.801 270.71 172.637 270.71 C 172.472 270.71 171.943 271.614 171.46 272.718 C 170.978 273.823 170.4 274.839 170.175 274.976 C 169.949 275.113 169.376 276.116 168.9 277.204 C 168.425 278.293 167.683 279.5 167.25 279.885 C 166.818 280.271 166.463 280.892 166.463 281.265 C 166.463 281.638 165.815 282.843 165.021 283.943 C 164.227 285.043 163.577 286.13 163.577 286.358 C 163.577 286.587 163.067 287.5 162.443 288.39 C 161.262 290.076 159.836 292.61 158.066 296.167 C 157.493 297.32 156.814 298.392 156.557 298.548 C 156.299 298.706 155.72 299.682 155.27 300.719 C 154.82 301.756 154.123 302.97 153.722 303.417 C 153.32 303.863 152.747 304.869 152.447 305.651 C 152.147 306.433 151.513 307.53 151.038 308.089 C 150.564 308.648 149.433 310.525 148.527 312.262 L 146.88 315.418 L 148.13 317.71 C 149.793 320.758 150.273 321.014 152.05 319.801 C 153.69 318.682 219.649 253.779 219.649 253.285 C 219.649 253.106 220.039 252.611 220.515 252.186 C 224.099 248.99 225.828 234.465 223.732 225.176 C 223.255 223.069 222.727 220.682 222.558 219.87 C 222.389 219.06 221.862 217.775 221.385 217.016 C 220.91 216.257 220.265 215.151 219.953 214.558 C 218.749 212.27 214.769 208.607 211.939 207.18 C 210.209 206.308 210.339 206.259 209.079 208.242 M 17.446 208.242 C 16.928 209.923 16.988 211.162 17.876 217.021 C 19.313 226.512 19.654 226.891 27.487 227.693 C 32.549 228.212 32.719 228.069 31.665 224.189 C 30.817 221.067 29.997 216.149 29.997 214.181 C 29.997 212.102 27.697 210.374 23.869 209.579 C 22.138 209.218 20.111 208.655 19.366 208.328 C 17.722 207.606 17.643 207.603 17.446 208.242 M 291.069 214.641 C 290.786 215.088 290.375 215.454 290.155 215.454 C 289.227 215.454 234.279 270.074 233.361 271.91 C 230.536 277.557 235.003 286.299 243.142 291.051 L 246.228 292.853 L 252.213 292.804 C 258.304 292.755 258.37 292.743 264.381 290.63 C 266.609 289.847 272.078 287.422 273.658 286.517 C 276.405 284.941 278.181 283.811 279.305 282.924 C 280.03 282.351 281.389 281.334 282.326 280.664 C 284.85 278.858 292.056 271.747 293.248 269.888 C 293.817 268.999 294.425 268.272 294.602 268.272 C 294.777 268.272 295.274 267.678 295.709 266.952 C 296.143 266.225 296.802 265.308 297.175 264.913 C 297.546 264.519 298.103 263.696 298.413 263.085 C 298.722 262.474 299.372 261.517 299.856 260.959 C 300.341 260.4 300.987 259.303 301.293 258.521 C 301.599 257.739 302.246 256.55 302.732 255.88 C 303.216 255.21 303.849 253.838 304.14 252.833 C 304.428 251.827 305.003 250.273 305.416 249.379 C 308.958 241.719 307.295 223.662 302.701 219.905 C 302.327 219.598 301.857 218.924 301.659 218.408 C 301.458 217.892 300.845 217.301 300.291 217.094 C 299.738 216.887 299.132 216.449 298.943 216.121 C 297.952 214.393 291.943 213.264 291.069 214.641 M 372.142 226.281 C 371.557 226.974 370.718 229.557 369.262 235.159 C 367.984 240.075 368.684 244.688 370.712 244.712 C 371.132 244.717 371.59 245.035 374.656 247.449 C 377.645 249.802 379.239 248.271 380.248 242.085 C 380.391 241.202 380.865 239.792 381.298 238.953 C 383.429 234.838 381.644 229.902 377.5 228.446 C 376.678 228.157 375.399 227.401 374.661 226.766 C 373.099 225.422 372.899 225.384 372.142 226.281 M 20.946 232.069 C 20.475 232.381 20.443 232.665 20.802 233.406 C 21.054 233.923 21.484 235.718 21.76 237.394 C 22.037 239.07 22.689 241.538 23.209 242.879 C 23.728 244.219 24.26 245.796 24.391 246.382 C 24.98 249.039 25.708 249.36 31.64 249.582 C 38.703 249.847 38.8 249.768 37.067 245.257 C 36.393 243.502 35.557 240.843 35.209 239.349 C 34.321 235.528 32.879 233.524 30.471 232.764 C 28.038 231.997 21.748 231.538 20.946 232.069 M 367.321 247.099 C 366.672 247.495 364.288 252.005 363.539 254.255 C 363.242 255.149 362.589 256.429 362.088 257.099 C 359.488 260.579 360.044 263.19 364.267 267.339 C 365.906 268.947 367.247 270.456 367.247 270.69 C 367.247 272.283 370.642 268.227 371.991 265.022 C 372.415 264.016 372.984 262.919 373.255 262.584 C 374.154 261.474 376.244 256.086 375.864 255.856 C 375.661 255.731 375.493 255.248 375.493 254.782 C 375.493 254.001 374.734 253.18 369.511 248.313 C 368.428 247.304 367.672 246.886 367.321 247.099 M 33.173 254.309 C 33.03 254.449 31.948 254.543 30.768 254.517 C 27.191 254.438 26.704 255.598 28.744 259.334 C 29.415 260.563 29.972 261.925 29.981 262.36 C 30.027 264.622 33.825 270.71 35.458 271.144 C 37.489 271.682 44.727 271.222 45.934 270.477 C 46.955 269.847 46.529 267.432 45.111 265.8 C 44.712 265.341 44.054 263.927 43.647 262.657 C 42.171 258.054 40.243 255.199 38.202 254.599 C 36.282 254.033 33.609 253.879 33.173 254.309 M 356.102 269.606 C 355.658 270.325 355.292 271.208 355.291 271.567 C 355.291 271.927 354.825 272.899 354.255 273.727 C 353.685 274.554 352.934 275.902 352.586 276.723 C 352.237 277.544 351.616 278.584 351.201 279.034 C 349.106 281.315 349.848 284.647 353.238 288.18 C 354.418 289.41 355.662 290.826 356.003 291.329 C 356.343 291.832 356.77 292.243 356.951 292.243 C 357.309 292.243 361.063 287.204 361.063 286.724 C 361.063 286.561 361.484 285.864 361.999 285.172 C 366.639 278.946 366.705 276.355 362.337 272.11 C 358.499 268.383 357.186 267.855 356.102 269.606 M 44.767 274.979 C 44.653 275.093 43.092 275.564 41.302 276.026 C 36.715 277.21 36.322 278.339 39.326 281.715 C 39.64 282.071 40.408 283.303 41.03 284.455 C 45.185 292.154 47.568 293.685 51.963 291.478 C 52.801 291.056 54.34 290.463 55.379 290.16 C 58.373 289.29 58.519 287.91 55.912 285.096 C 55.125 284.246 53.9 282.178 52.276 278.958 C 50.945 276.319 46.043 273.721 44.767 274.979 M 344.561 289.39 C 343.773 290.542 342.741 292.116 342.269 292.888 C 341.797 293.661 340.952 294.792 340.391 295.401 C 336.627 299.493 335.888 302.478 338.078 304.732 C 338.701 305.374 339.211 306.054 339.211 306.245 C 339.211 306.849 342.59 310.933 343.088 310.933 C 343.613 310.933 347.793 306.218 349.535 303.662 C 350.14 302.777 351.116 301.486 351.708 300.793 C 354.234 297.834 353.605 295.295 349.193 290.658 L 345.995 287.296 L 344.561 289.39 M 54.425 295.416 C 49.268 296.704 49.02 297.293 52.014 301.172 C 53.012 302.465 54.03 303.894 54.276 304.348 C 54.522 304.801 55.237 305.713 55.863 306.374 C 56.49 307.036 57.562 308.211 58.245 308.986 C 60.395 311.425 63.609 311.836 65.86 309.96 C 66.203 309.672 67.569 309.015 68.894 308.497 C 71.203 307.596 71.292 307.507 71.058 306.35 C 70.924 305.687 70.813 305.016 70.813 304.861 C 70.813 304.706 70.242 303.952 69.545 303.185 C 68.846 302.418 67.594 300.98 66.762 299.987 C 61.459 293.669 61.442 293.662 54.425 295.416 M 204.787 299.963 C 204.638 300.77 204.319 301.005 203.237 301.108 C 202.459 301.181 201.764 301.517 201.619 301.887 C 201.319 302.659 186.372 317.434 185.891 317.434 C 185.71 317.434 185.349 317.895 185.087 318.458 C 184.828 319.02 184.161 319.651 183.607 319.858 C 182.937 320.109 182.558 320.611 182.47 321.358 C 182.376 322.139 182.047 322.547 181.384 322.699 C 180.303 322.948 180.116 323.665 181.08 323.863 C 181.913 324.034 186.983 321.561 188.219 320.379 C 188.746 319.877 189.336 319.465 189.531 319.465 C 189.965 319.465 195.715 314.887 197.525 313.102 C 199.853 310.804 202.344 307.474 203.4 305.245 C 203.77 304.463 204.345 303.255 204.678 302.56 C 205.012 301.867 205.215 300.77 205.129 300.123 C 204.977 298.981 204.967 298.977 204.787 299.963 M 327.305 310.438 C 324.726 313.057 322.242 315.952 321.787 316.872 L 320.96 318.544 L 322.707 322.357 C 324.28 325.789 325.888 327.997 326.815 327.997 C 327.001 327.997 328.799 326.331 330.812 324.294 C 332.824 322.257 335.049 320.056 335.754 319.403 C 336.461 318.75 337.364 317.506 337.761 316.638 L 338.481 315.061 L 337.144 312.2 C 336.407 310.625 335.459 309.027 335.034 308.65 C 334.61 308.272 334.264 307.746 334.264 307.48 C 334.264 306.921 332.938 305.645 332.377 305.664 C 332.167 305.671 329.886 307.82 327.305 310.438 M 71.447 312.371 C 70.599 312.938 68.949 313.653 67.782 313.958 C 63.944 314.963 64.064 314.812 65.311 317.071 C 65.916 318.164 66.567 319.059 66.759 319.059 C 66.951 319.059 68.962 320.879 71.226 323.104 C 76.479 328.26 79.438 328.981 83.186 326.012 C 84.047 325.329 85.49 324.48 86.395 324.123 L 88.039 323.475 L 87.409 322.23 C 86.686 320.801 79.054 313.221 77.204 312.095 C 75.456 311.031 73.297 311.134 71.447 312.371 M 315.299 321.861 C 315.299 322.093 314.243 323.066 312.953 324.023 C 311.662 324.98 310.21 326.128 309.725 326.575 C 309.24 327.022 307.795 328.189 306.514 329.169 C 303.414 331.538 302.926 335.154 305.22 338.764 C 305.503 339.211 305.861 340.171 306.015 340.897 C 306.168 341.623 306.68 342.484 307.153 342.809 C 308.094 343.46 307.748 343.656 312.54 339.765 C 313.633 338.879 314.653 338.154 314.808 338.153 C 314.965 338.152 315.773 337.558 316.605 336.832 C 317.438 336.107 318.582 335.13 319.148 334.661 C 321.315 332.865 321.076 329.285 318.46 324.341 C 317.189 321.94 315.299 320.458 315.299 321.861 M 89.572 327.181 C 89.119 327.374 88.098 328.094 87.304 328.78 C 86.511 329.465 85.645 330.028 85.38 330.028 C 83.86 330.031 82.349 331.462 82.591 332.67 C 82.818 333.805 84.576 335.711 85.402 335.715 C 85.603 335.716 86.16 336.128 86.639 336.631 C 87.118 337.134 87.975 337.867 88.542 338.26 C 89.108 338.654 90.407 339.615 91.428 340.4 C 95.967 343.885 97.242 343.856 101.322 340.173 C 102.343 339.253 103.768 338.242 104.49 337.927 C 106.488 337.055 106.536 336.574 104.778 334.961 C 103.266 333.574 102.127 332.742 98.231 330.181 C 97.324 329.585 95.972 328.575 95.227 327.937 C 93.813 326.727 91.397 326.404 89.572 327.181 M 295.634 336.416 C 294.909 337.036 292.805 338.368 290.957 339.374 C 284.189 343.059 284.045 343.328 285.029 350.445 C 285.899 356.736 284.856 356.6 294.478 351.673 C 295.158 351.326 296.272 350.636 296.952 350.143 C 297.632 349.649 298.785 348.943 299.513 348.573 C 301.684 347.471 302.01 345.595 300.911 340.51 C 299.904 335.851 299.889 335.822 298.177 335.509 C 297.229 335.336 296.655 335.541 295.634 336.416 M 106.209 341.935 C 105.712 342.684 104.732 343.667 104.034 344.121 C 103.337 344.574 102.547 345.526 102.281 346.236 C 101.747 347.658 101.481 347.436 108.23 351.231 C 111.487 353.064 111.891 351.976 110.145 346.078 C 109.549 344.066 109 342.205 108.926 341.939 C 108.537 340.562 107.123 340.56 106.209 341.935 M 230.78 347.093 C 229.987 347.522 228.873 347.882 228.306 347.894 C 224.876 347.965 217.127 351.596 215.93 353.693 L 215.057 355.226 L 216.012 356.444 C 221.424 363.336 222.578 363.884 226.205 361.295 C 228.56 359.614 229.566 359.287 233.828 358.817 C 235.844 358.593 237.722 358.187 238 357.914 C 238.278 357.64 239.318 357.178 240.312 356.885 C 242.201 356.329 247.914 353.766 248.837 353.06 C 250.165 352.044 244.309 347.906 241.543 347.906 C 240.924 347.906 239.65 347.54 238.71 347.093 C 236.468 346.026 232.76 346.026 230.78 347.093 M 276.544 347.093 C 275.977 347.53 274.586 348.194 273.452 348.569 C 272.318 348.943 271.016 349.488 270.558 349.781 C 270.102 350.073 268.898 350.601 267.885 350.953 C 264.123 352.261 262.627 355.006 262.475 360.873 C 262.352 365.648 263.514 366.162 268.916 363.723 C 270.277 363.109 272.133 362.407 273.04 362.162 C 278.688 360.637 280.981 358.006 280.508 353.594 C 279.729 346.325 279.029 345.178 276.544 347.093 M 178.889 350.445 C 172.302 357.389 173.089 360.907 181.231 360.907 C 184.818 360.907 186.759 361.119 189.087 361.763 C 193.142 362.884 196.469 362.534 198.281 360.794 C 198.582 360.504 199.53 359.845 200.386 359.329 C 202.492 358.058 201.601 353.594 199.24 353.594 C 198.98 353.594 198.349 353.157 197.84 352.623 C 197.331 352.089 196.046 351.416 194.985 351.127 C 193.924 350.838 192.128 350.18 190.994 349.664 C 189.271 348.88 188.245 348.726 184.73 348.723 L 180.527 348.718 L 178.889 350.445 M 164.906 350.715 C 163.03 351.339 161.069 352.241 160.55 352.721 C 160.032 353.201 159.411 353.594 159.173 353.594 C 158.665 353.594 152.45 358.412 152.439 358.811 C 152.436 358.958 151.694 359.888 150.79 360.875 C 148.802 363.047 148.488 369.44 150.37 369.44 C 150.544 369.44 151.188 370.185 151.8 371.096 C 152.775 372.548 154.865 373.909 156.12 373.909 C 156.341 373.909 157.229 373.143 158.091 372.206 C 160.645 369.435 165.382 364.847 166.863 363.71 C 168.201 362.683 168.248 362.545 168.535 358.817 C 168.704 356.607 169.114 354.436 169.501 353.698 C 171.575 349.745 170.307 348.923 164.906 350.715 M 255.312 355.005 C 254.631 355.311 252.869 355.963 251.395 356.454 C 249.921 356.945 248.158 357.677 247.478 358.082 C 246.798 358.486 245.314 359.126 244.18 359.504 C 243.046 359.881 242.026 360.327 241.912 360.496 C 241.799 360.664 240.736 361.283 239.55 361.872 C 236.724 363.277 236.14 364.435 236.14 368.627 C 236.14 370.72 235.92 372.335 235.537 373.067 C 234.176 375.661 238.049 376.447 241.706 374.32 C 242.386 373.925 243.685 373.369 244.592 373.087 C 247.21 372.271 253.981 368.618 255.033 367.454 C 257.126 365.138 257.208 364.853 257.225 359.887 C 257.244 354.599 257.088 354.204 255.312 355.005 M 208.845 357.555 C 204.414 362.291 199.259 365.319 195.53 365.377 C 194.635 365.39 193.733 365.922 192.266 367.301 L 190.238 369.207 L 190.204 372.995 C 190.165 377.323 190.208 377.385 193.534 377.794 C 196.202 378.123 199.446 377.731 202.126 376.758 C 203.26 376.347 205.023 375.78 206.043 375.497 C 207.063 375.216 208.269 374.686 208.723 374.319 C 209.176 373.952 210.044 373.349 210.65 372.978 C 211.256 372.608 213.244 370.911 215.065 369.207 L 218.376 366.11 L 217.466 364.829 C 216.966 364.124 215.954 362.862 215.217 362.024 C 214.48 361.185 213.876 360.297 213.876 360.05 C 213.876 359.236 211.348 356.438 210.613 356.438 C 210.215 356.438 209.42 356.941 208.845 357.555 M 141.127 360.184 C 140.456 360.426 139.588 360.919 139.196 361.278 C 138.804 361.639 137.637 362.179 136.6 362.481 C 134.392 363.123 134.265 363.501 135.966 364.367 C 137.939 365.371 139.95 364.795 142.05 362.621 C 144.403 360.186 144.007 359.142 141.127 360.184 M 170.999 364.751 C 169.3 365.249 163.521 370.851 163.846 371.686 C 164.244 372.712 169.322 374.758 173.885 375.733 C 175.586 376.096 177.771 376.657 178.744 376.979 C 184.061 378.744 186.066 377.228 187.484 370.378 C 188.387 366.018 187.863 365.41 183.161 365.362 C 181.8 365.349 178.832 365.11 176.565 364.833 C 173.622 364.473 172.028 364.449 170.999 364.751 M 225.153 367.192 C 221.384 368.506 218.903 370.156 214.022 374.589 C 210.849 377.473 211.821 377.973 220.603 377.971 C 229.187 377.968 230.184 377.332 231.136 371.258 C 232.02 365.62 231.219 365.076 225.153 367.192 M 257.373 371.482 C 256.466 371.907 253.757 373.167 251.353 374.282 L 246.984 376.309 L 246.71 379.817 C 246.56 381.747 246.26 383.651 246.046 384.047 C 245.616 384.837 246.585 385.932 248.509 386.83 C 249.076 387.094 249.818 387.49 250.158 387.71 C 250.498 387.93 251.704 388.536 252.837 389.059 C 253.971 389.58 255.313 390.265 255.818 390.582 C 256.952 391.292 259.687 388.956 260.562 386.529 C 261.382 384.255 261.219 374.112 260.33 372.182 C 259.529 370.44 259.573 370.45 257.373 371.482 M 144.602 372.919 C 143.719 375.209 144.112 385.504 145.178 388.04 C 145.717 389.318 146.393 391.095 146.681 391.989 C 148.161 396.575 153.401 398.369 160.433 396.698 C 162.97 396.095 163.603 393.529 161.567 392.102 C 160.094 391.07 157.879 387.133 157.388 384.676 C 156.547 380.457 155.891 379.353 153.674 378.413 C 151.929 377.673 148.323 374.357 148.323 373.491 C 148.323 373.204 145.807 371.877 145.262 371.877 C 145.119 371.877 144.824 372.347 144.602 372.919 M 164.537 381.408 C 159.576 383.535 165.222 392.126 171.323 391.733 C 172.392 391.664 174.891 391.76 176.876 391.947 L 180.485 392.289 L 184.194 388.692 C 189.435 383.609 189.676 383.896 178.008 381.391 C 174.526 380.644 166.296 380.654 164.537 381.408 M 218 382.691 C 211.684 384.013 211.331 384.206 211.486 386.258 C 211.609 387.883 211.613 387.887 214.237 388.646 C 216.647 389.344 220.393 391.408 222.265 393.072 C 223.975 394.589 232.22 394.518 233.904 392.971 C 234.901 392.054 239.373 389.348 239.892 389.348 C 240.769 389.348 243.561 387.993 243.561 387.568 C 243.561 387.307 242.866 386.742 242.015 386.309 C 241.165 385.876 239.944 385.172 239.302 384.744 C 235.103 381.94 225.848 381.048 218 382.691 M 195.118 386.371 C 194.664 386.487 193.922 386.929 193.469 387.353 C 192.382 388.371 189.275 390.612 187.593 391.589 C 186.856 392.016 186.254 392.574 186.254 392.826 C 186.254 393.967 190.283 396.298 192.981 396.718 C 194.12 396.895 195.993 397.496 197.146 398.052 C 198.299 398.608 199.948 399.342 200.811 399.681 C 202.344 400.282 203.398 400.98 206.216 403.264 C 207.034 403.927 208.093 404.381 208.819 404.381 C 209.572 404.381 210.533 403.95 211.313 403.264 C 212.012 402.649 213.615 401.333 214.876 400.338 C 219.274 396.871 218.107 393.971 211.17 391.147 C 210.279 390.783 209.256 390.231 208.898 389.919 C 208.541 389.607 206.836 388.996 205.11 388.56 C 203.381 388.124 201.445 387.501 200.805 387.175 C 199.484 386.502 196.35 386.059 195.118 386.371 M 242.313 392.006 C 241.979 392.404 240.726 393.158 239.528 393.68 C 236.198 395.135 236.266 396.83 239.753 399.19 C 242.037 400.737 245.837 404.494 247.08 406.435 C 248.716 408.989 250.661 409.713 252.139 408.316 C 252.775 407.716 253.437 407.225 253.61 407.225 C 253.782 407.225 254.519 406.777 255.248 406.23 C 256.202 405.511 257.341 405.157 259.34 404.955 C 263.005 404.585 263.401 404.067 261.636 401.948 C 260.173 400.193 257.097 397.028 255.463 395.596 C 252.112 392.658 243.692 390.36 242.313 392.006 M 138.222 393.073 C 136.308 394.474 133.454 397.097 131.484 399.265 C 129.812 401.105 130.415 402.349 132.979 402.349 C 134.573 402.349 137.858 404.042 140.519 406.234 C 142.581 407.931 142.814 407.943 144.624 406.448 C 145.412 405.797 146.599 404.819 147.264 404.272 C 148.723 403.075 148.382 401.779 145.842 398.888 C 145.015 397.945 144.1 396.337 143.808 395.313 C 142.862 391.98 140.828 391.164 138.222 393.073 M 167.289 398.549 C 166.268 399.12 165.154 399.809 164.814 400.078 C 163.73 400.936 161.937 401.536 160.363 401.567 C 158.321 401.609 155.98 402.477 155.827 403.249 C 155.708 403.849 161.088 407.615 162.105 407.644 C 162.348 407.651 163.655 408.199 165.011 408.863 C 170.299 411.452 174.153 410.242 177.094 405.067 C 179.509 400.82 179.061 399.43 175.103 398.894 C 173.91 398.731 172.319 398.346 171.568 398.037 C 169.761 397.293 169.464 397.329 167.289 398.549 M 221.257 399.988 C 219.791 401.399 217.592 403.397 216.368 404.43 C 211.839 408.251 216.09 410.853 226.864 410.853 C 233.81 410.853 236.503 410.165 238.923 407.771 C 240.227 406.482 240.117 406.077 237.789 403.568 C 236.655 402.346 235.728 401.216 235.728 401.056 C 235.728 400.73 234.265 399.189 233.121 398.31 C 232.621 397.925 230.963 397.681 228.146 397.579 L 223.923 397.424 L 221.257 399.988 M 184.089 398.319 C 183.533 398.638 183.368 399.275 183.368 401.1 C 183.368 403.908 182.482 406.617 181.099 408.039 C 180.518 408.636 180.048 409.662 179.98 410.482 L 179.863 411.897 L 181.857 412.022 C 183.05 412.097 184.21 411.924 184.743 411.59 C 185.234 411.282 186.672 410.807 187.939 410.535 C 189.207 410.263 191.241 409.407 192.46 408.633 C 193.68 407.859 194.839 407.225 195.038 407.225 C 195.236 407.225 196.407 406.376 197.641 405.337 L 199.884 403.449 L 198.738 402.688 C 195.323 400.418 194.305 399.858 193.318 399.706 C 188.871 399.026 186.623 398.548 186.43 398.24 C 186.132 397.764 184.987 397.803 184.089 398.319 M 125.853 407.711 C 124.143 408.666 124.52 411.702 126.45 412.507 C 127.029 412.749 128.462 413.818 129.637 414.883 C 132.837 417.79 135.037 417.151 138.199 412.396 L 138.939 411.283 L 137.344 409.817 C 134.663 407.353 128.511 406.225 125.853 407.711 M 257.579 410.454 C 256.26 411.145 254.914 412.389 254.129 413.638 C 253.827 414.121 255.609 416.852 256.653 417.506 C 256.94 417.687 257.632 418.319 258.189 418.91 L 259.201 419.987 L 260.142 419.168 C 260.66 418.718 261.593 418.136 262.217 417.875 C 262.84 417.614 263.351 417.217 263.351 416.993 C 263.351 416.769 264.047 416.234 264.897 415.803 C 266.86 414.807 268.87 411.489 267.886 410.868 C 265.692 409.484 259.877 409.25 257.579 410.454 M 122.199 414.044 C 121.66 414.902 127.029 420.268 128.303 420.145 C 129.788 420.002 129.865 419.408 128.487 418.717 C 127.946 418.446 127.403 417.815 127.283 417.317 C 127.139 416.721 126.612 416.296 125.737 416.073 C 124.694 415.806 124.411 415.52 124.411 414.73 C 124.411 413.736 122.72 413.212 122.199 414.044 M 116.783 415.983 C 113.675 417.559 113.466 419.107 116.009 421.721 C 117.057 422.798 118.457 424.457 119.121 425.406 C 121.326 428.564 123.471 429.094 124.874 426.829 C 125.394 425.991 125.946 425.25 126.101 425.184 C 126.947 424.822 125 420.954 123.703 420.419 C 122.85 420.068 122.349 419.577 122.349 419.094 C 122.349 418.658 121.878 418.114 121.26 417.836 C 120.663 417.568 119.815 416.899 119.375 416.349 C 118.439 415.175 118.39 415.168 116.783 415.983 M 269.126 416.56 C 268.655 416.852 268.625 417.054 268.995 417.419 C 269.577 417.993 270.908 417.581 270.677 416.9 C 270.452 416.235 269.858 416.105 269.126 416.56 M 266.253 418.677 C 265.252 419.737 265.199 420.172 266.032 420.486 C 267.396 421.001 268.711 420.272 268.711 418.999 C 268.711 417.5 267.515 417.343 266.253 418.677 M 270.979 420.482 C 269.038 422.687 267.376 424.289 267.028 424.289 C 266.209 424.289 265.762 427.461 266.407 428.691 C 267.024 429.867 270.36 432.056 270.36 431.285 C 270.36 431.101 271.241 430.04 272.318 428.929 C 274.357 426.825 275.166 425.88 277.047 423.411 L 278.167 421.939 L 276.941 420.27 C 275.134 417.812 273.269 417.878 270.979 420.482 M 263.728 421.391 L 262.782 422.146 L 263.693 422.628 C 264.773 423.196 265.413 422.909 265.413 421.852 C 265.413 420.714 264.791 420.543 263.728 421.391" stroke="none" fill-rule="evenodd" fill="#040904" style=""/>
    <path id="path1" d="M 256.106 27.826 C 254.751 29.117 246.563 29.377 236.141 28.458 C 227.776 27.722 196.769 27.63 192.026 28.329 C 188.314 28.876 183.54 31.132 181.101 33.49 C 178.02 36.47 176.865 37.801 176.596 38.684 C 176.447 39.168 175.916 40.074 175.416 40.697 C 174.914 41.32 174.025 42.752 173.438 43.879 C 172.852 45.007 171.807 46.935 171.116 48.164 C 170.426 49.393 169.286 51.454 168.583 52.743 C 167.881 54.033 167.111 55.312 166.871 55.587 C 166.158 56.407 163.626 60.705 161.431 64.822 C 160.298 66.945 159.135 68.956 158.847 69.291 C 158.557 69.626 157.922 70.723 157.435 71.729 C 156.419 73.827 154.829 76.578 153.442 78.636 C 152.105 80.616 150.562 83.341 149.375 85.81 C 148.821 86.963 148.178 88.022 147.945 88.163 C 147.712 88.306 147.208 89.099 146.825 89.928 C 146.442 90.757 145.733 91.891 145.249 92.45 C 144.764 93.008 144.119 94.197 143.814 95.091 C 143.51 95.985 143.116 96.808 142.941 96.922 C 142.581 97.154 139.976 101.544 138.722 104.029 C 138.271 104.923 137.465 106.291 136.928 107.069 C 136.394 107.847 135.956 108.721 135.956 109.01 C 135.956 109.868 133.031 115.715 131.978 116.961 C 131.446 117.592 131.008 118.373 131.008 118.696 C 131.008 119.02 130.359 120.215 129.566 121.353 C 128.772 122.489 128.122 123.648 128.122 123.929 C 128.122 124.209 127.721 124.94 127.231 125.554 C 126.391 126.606 125.897 127.453 122.784 133.181 C 122.085 134.466 121.357 135.517 121.164 135.517 C 120.971 135.517 120.485 136.386 120.083 137.447 C 119.68 138.508 119.077 139.69 118.741 140.072 C 118.405 140.454 117.68 141.642 117.132 142.713 C 115.076 146.726 113.839 148.781 112.954 149.652 C 112.453 150.146 112.043 150.83 112.043 151.174 C 112.043 151.775 110.912 153.79 110.34 154.207 C 110.187 154.318 109.59 155.461 109.014 156.746 C 108.438 158.031 107.799 159.082 107.597 159.082 C 107.393 159.082 106.984 159.808 106.687 160.697 C 106.389 161.585 105.837 162.638 105.459 163.039 C 105.08 163.438 104.284 164.814 103.689 166.096 C 103.093 167.378 102.436 168.427 102.226 168.427 C 102.018 168.427 101.521 169.271 101.121 170.303 C 100.721 171.335 99.935 172.569 99.375 173.046 C 98.137 174.098 95.797 177.502 94.968 179.455 C 94.635 180.241 94.102 181.096 93.783 181.356 C 93.467 181.616 92.531 183.173 91.708 184.817 C 88.017 192.177 88.087 199.326 91.897 204.134 C 92.321 204.668 92.668 205.399 92.671 205.759 C 92.675 206.355 98.397 212.307 98.965 212.307 C 99.096 212.307 100.47 212.901 102.016 213.627 L 104.828 214.948 L 141.521 215.167 C 161.702 215.288 178.248 215.425 178.288 215.472 C 178.329 215.519 178.659 215.85 179.021 216.206 C 179.948 217.119 179.439 219.472 177.95 221.158 C 177.302 221.892 176.772 222.841 176.772 223.267 C 176.772 223.693 176.579 224.16 176.343 224.303 C 175.689 224.701 173.886 227.652 173.886 228.324 C 173.886 228.651 173.553 229.158 173.146 229.45 C 172.739 229.742 172.079 230.835 171.681 231.878 C 171.282 232.922 170.693 233.992 170.371 234.255 C 170.049 234.518 169.31 235.676 168.73 236.827 C 167.156 239.945 165.52 242.788 164.275 244.563 C 163.665 245.432 163.166 246.336 163.166 246.572 C 163.166 246.807 162.734 247.468 162.204 248.039 C 161.674 248.609 160.912 249.958 160.508 251.037 C 160.106 252.115 159.528 253.091 159.225 253.205 C 158.922 253.319 158.376 254.298 158.011 255.378 C 157.647 256.459 157.052 257.585 156.686 257.882 C 156.323 258.179 155.6 259.364 155.083 260.517 C 154.564 261.67 153.942 262.733 153.7 262.882 C 153.457 263.029 152.975 263.82 152.628 264.64 C 152.281 265.459 151.648 266.499 151.224 266.949 C 150.798 267.398 150.124 268.589 149.722 269.595 C 149.321 270.6 148.679 271.647 148.293 271.922 C 147.909 272.196 147.467 272.921 147.31 273.534 C 147.154 274.147 146.391 275.664 145.613 276.904 C 144.837 278.144 144.201 279.373 144.201 279.635 C 144.201 279.897 143.877 280.353 143.48 280.648 C 142.625 281.284 141.728 282.767 141.728 283.547 C 141.728 283.852 141.281 284.577 140.736 285.158 C 140.19 285.738 139.525 286.866 139.257 287.664 C 138.991 288.464 138.357 289.616 137.851 290.224 C 137.345 290.834 136.682 291.971 136.378 292.753 C 136.073 293.535 135.414 294.632 134.913 295.191 C 134.412 295.75 133.655 296.755 133.233 297.426 C 132.811 298.096 132.159 298.868 131.787 299.141 C 131.412 299.415 130.822 300.34 130.475 301.196 C 130.125 302.052 129.577 302.971 129.252 303.236 C 128.927 303.502 128.319 304.496 127.898 305.448 C 127.479 306.399 126.777 307.695 126.339 308.329 C 125.563 309.451 124.358 311.593 122.645 314.896 C 122.182 315.79 121.563 316.802 121.269 317.144 C 120.976 317.486 120.172 318.765 119.483 319.988 C 117.349 323.772 115.603 326.834 114.208 329.243 C 110.629 335.423 110.335 337.134 111.538 344.759 C 112.158 348.685 112.58 350.187 113.399 351.375 C 113.981 352.221 114.578 353.453 114.725 354.113 C 115.33 356.826 123.893 362.202 127.793 362.317 C 130.6 362.4 136.008 361.489 137.811 360.629 C 138.718 360.196 140.109 359.546 140.903 359.185 C 142.37 358.516 143.989 357.486 146.789 355.444 C 148.926 353.884 175.857 327.31 177.391 325.247 C 178.861 323.27 185.254 316.727 185.721 316.72 C 185.901 316.717 186.468 316.077 186.981 315.298 C 187.493 314.519 188.158 313.881 188.46 313.881 C 188.761 313.881 189.221 313.421 189.481 312.859 C 189.74 312.297 190.404 311.635 190.955 311.387 C 191.506 311.14 192.047 310.596 192.159 310.178 C 192.269 309.76 192.932 309.097 193.634 308.703 C 194.334 308.311 194.908 307.763 194.909 307.486 C 194.911 307.208 195.552 306.568 196.334 306.064 C 197.116 305.559 197.845 304.812 197.953 304.404 C 198.062 303.997 198.534 303.564 199.004 303.443 C 199.476 303.321 199.86 303.062 199.86 302.866 C 199.86 302.322 204.865 297.629 205.446 297.629 C 205.999 297.629 230.369 273.894 230.369 273.355 C 230.369 272.77 236.616 265.965 237.171 265.944 C 237.398 265.935 238.004 265.29 238.516 264.511 C 239.028 263.732 239.694 263.094 239.995 263.094 C 240.297 263.094 240.756 262.634 241.016 262.072 C 241.276 261.51 241.934 260.85 242.48 260.605 C 243.025 260.36 243.675 259.721 243.923 259.183 C 244.172 258.646 244.841 257.997 245.411 257.741 C 245.981 257.485 246.448 257.032 246.448 256.734 C 246.448 256.438 247.088 255.781 247.87 255.277 C 248.651 254.772 249.38 254.025 249.489 253.617 C 249.597 253.21 250.038 252.785 250.469 252.674 C 250.9 252.563 251.567 251.948 251.952 251.307 C 252.335 250.666 252.971 250.04 253.362 249.915 C 253.755 249.791 254.392 249.14 254.777 248.468 C 255.164 247.797 255.748 247.248 256.077 247.248 C 256.405 247.248 257.057 246.608 257.526 245.826 C 257.993 245.044 258.666 244.404 259.019 244.404 C 259.372 244.404 259.835 243.956 260.046 243.408 C 260.258 242.86 260.995 242.124 261.685 241.772 C 262.375 241.421 262.94 240.855 262.94 240.515 C 262.94 240.176 263.495 239.586 264.174 239.205 C 264.853 238.825 265.41 238.286 265.411 238.009 C 265.413 237.732 266.053 237.092 266.835 236.587 C 267.617 236.082 268.345 235.336 268.454 234.927 C 268.562 234.52 268.989 234.1 269.402 233.993 C 269.816 233.886 270.575 233.168 271.087 232.397 C 271.599 231.627 272.254 230.996 272.543 230.996 C 272.832 230.996 273.391 230.459 273.785 229.802 C 274.179 229.146 274.84 228.502 275.255 228.373 C 275.669 228.243 276.219 227.679 276.477 227.12 C 276.736 226.562 277.413 225.93 277.983 225.717 C 278.553 225.503 279.019 225.043 279.019 224.695 C 279.019 224.347 279.668 223.684 280.462 223.223 C 281.256 222.762 281.905 222.119 281.905 221.796 C 281.905 221.472 282.462 220.896 283.143 220.515 C 283.824 220.135 284.484 219.507 284.611 219.12 C 284.737 218.734 285.386 218.101 286.052 217.713 C 286.719 217.325 287.264 216.785 287.264 216.513 C 287.264 216.241 287.835 215.618 288.534 215.129 C 289.232 214.638 290.244 213.803 290.782 213.272 C 291.322 212.742 292.034 212.307 292.366 212.307 C 292.699 212.307 294.888 210.27 297.23 207.782 C 299.572 205.293 302.323 202.505 303.341 201.586 C 314.118 191.865 319.255 185.854 320.753 181.209 C 323.094 173.952 323.007 174.885 321.761 170.447 C 320.253 165.079 317.937 161.255 315.594 160.269 C 314.964 160.002 314.129 159.398 313.74 158.926 C 313.03 158.064 312.128 157.562 309.631 156.636 C 308.894 156.363 308.291 156 308.291 155.83 C 308.291 155.016 304.74 154.856 282.092 154.64 C 259.553 154.427 257.664 154.355 256.614 153.676 L 255.48 152.943 L 256.324 151.597 C 256.788 150.857 257.167 149.984 257.167 149.659 C 257.167 149.333 257.65 148.623 258.239 148.082 C 258.829 147.539 259.68 146.331 260.129 145.395 C 260.577 144.459 261.394 143.403 261.941 143.05 C 262.491 142.695 262.94 142.149 262.94 141.835 C 262.94 141.521 263.424 140.888 264.017 140.429 C 265.054 139.625 267.065 136.92 268.249 134.736 C 268.561 134.16 269.236 133.232 269.75 132.673 C 270.263 132.114 271.099 130.835 271.608 129.829 C 272.116 128.823 272.665 127.909 272.828 127.797 C 273.138 127.584 274.916 125.01 276.37 122.669 C 276.841 121.911 277.586 120.881 278.026 120.38 C 278.466 119.879 279.341 118.6 279.97 117.539 C 280.6 116.477 281.259 115.609 281.433 115.609 C 281.608 115.609 282.006 114.969 282.317 114.186 C 282.63 113.403 283.313 112.366 283.837 111.881 C 284.362 111.395 284.791 110.826 284.791 110.615 C 284.791 110.405 285.44 109.361 286.234 108.295 C 287.027 107.23 287.677 106.196 287.677 105.998 C 287.677 105.799 288.271 104.925 288.998 104.057 C 289.726 103.187 290.607 101.981 290.956 101.377 C 291.307 100.773 292.892 98.421 294.479 96.152 C 296.066 93.882 297.778 91.27 298.281 90.345 C 298.786 89.422 299.552 88.283 299.982 87.815 C 300.414 87.348 301.005 86.508 301.295 85.949 C 301.588 85.39 302.133 84.717 302.511 84.453 C 302.889 84.19 303.546 83.139 303.973 82.117 C 304.4 81.096 304.882 80.261 305.043 80.261 C 305.205 80.261 305.758 79.575 306.272 78.737 C 306.785 77.899 307.729 76.613 308.366 75.879 C 309.005 75.145 309.527 74.303 309.527 74.006 C 309.527 73.71 310.175 72.665 310.967 71.684 C 311.759 70.703 312.408 69.7 312.41 69.456 C 312.412 69.211 312.791 68.674 313.252 68.263 C 313.712 67.853 314.289 66.734 314.533 65.779 C 314.847 64.551 315.692 63.301 317.407 61.525 C 318.743 60.141 319.843 58.626 319.852 58.157 C 319.861 57.689 320.34 56.025 320.914 54.461 C 323.001 48.776 322.999 48.848 321.269 43.673 C 318.604 35.702 313.185 30.393 305.957 28.675 C 302.411 27.832 283.727 27.659 277.49 28.411 C 268.898 29.448 258.703 29.143 256.93 27.798 C 256.687 27.613 256.316 27.625 256.106 27.826 M 300.809 49.89 C 301.161 51.129 301.062 51.325 299.227 53.039 C 298.151 54.045 296.783 55.599 296.189 56.493 C 295.594 57.387 294.799 58.575 294.422 59.134 C 291.677 63.21 290.716 64.651 290.357 65.232 C 289.106 67.252 286.865 70.557 284.572 73.76 C 284.012 74.542 283.23 75.712 282.832 76.36 C 282.435 77.008 281.634 78.105 281.052 78.797 C 280.47 79.491 279.751 80.652 279.456 81.378 C 279.16 82.105 278.79 82.699 278.632 82.699 C 278.475 82.699 277.911 83.476 277.378 84.425 C 276.845 85.375 275.93 86.793 275.343 87.576 C 274.757 88.358 274.091 89.289 273.865 89.641 C 273.638 89.995 272.804 91.2 272.01 92.321 C 268.555 97.197 266.725 100.032 266.445 100.938 C 266.28 101.474 265.609 102.743 264.955 103.761 C 264.3 104.778 263.765 105.822 263.765 106.081 C 263.765 106.34 263.276 107.07 262.678 107.705 C 262.082 108.34 261.34 109.457 261.03 110.188 C 260.72 110.919 260.096 111.712 259.642 111.952 C 259.188 112.191 258.816 112.641 258.816 112.95 C 258.816 113.261 258.18 114.338 257.401 115.343 C 256.623 116.348 255.707 117.701 255.367 118.349 C 255.027 118.997 254.456 119.767 254.098 120.06 C 253.74 120.352 253.089 121.39 252.651 122.366 C 252.213 123.342 251.679 124.141 251.465 124.141 C 251.249 124.141 250.681 124.964 250.202 125.969 C 249.722 126.975 249.175 127.797 248.984 127.797 C 248.795 127.797 248.286 128.483 247.853 129.321 C 247.42 130.159 246.557 131.445 245.933 132.179 C 245.31 132.914 244.799 133.75 244.799 134.038 C 244.799 134.327 244.338 134.991 243.773 135.514 C 243.207 136.037 242.356 137.257 241.88 138.225 C 241.404 139.194 240.88 139.986 240.713 139.986 C 240.547 139.986 239.987 140.822 239.468 141.844 C 238.951 142.866 238.268 143.799 237.951 143.919 C 237.633 144.039 237.079 144.751 236.718 145.501 C 236.356 146.25 235.754 146.966 235.38 147.091 C 235.005 147.217 234.201 148.092 233.593 149.037 C 232.986 149.98 231.548 152.104 230.398 153.755 C 229.249 155.405 228.307 156.827 228.307 156.916 C 228.307 157.004 227.658 158.396 226.865 160.008 C 224.506 164.799 225.982 169.681 230.655 172.544 L 232.224 173.506 L 265.619 173.607 C 302.789 173.721 300.045 173.566 300.045 175.552 C 300.045 176.991 287.817 189.961 286.461 189.961 C 286.223 189.961 286.028 190.151 286.028 190.383 C 286.028 190.616 283.824 192.947 281.129 195.563 C 274.763 201.748 273.55 202.813 272.483 203.146 C 271.996 203.298 271.598 203.581 271.598 203.775 C 271.598 203.968 270.646 205.007 269.484 206.083 C 268.322 207.16 266.42 209.025 265.259 210.229 C 264.096 211.431 262.326 213.168 261.324 214.088 C 260.322 215.008 258.559 216.741 257.407 217.939 C 256.255 219.138 254.973 220.418 254.557 220.783 C 254.143 221.149 249.876 225.354 245.076 230.127 C 240.275 234.901 236.011 239.106 235.6 239.472 C 231.945 242.729 223.684 251.114 223.176 252.082 C 222.823 252.754 222.243 253.464 221.887 253.66 C 221.53 253.857 221.016 254.46 220.746 255 C 220.475 255.542 219.873 256.15 219.405 256.354 C 218.939 256.558 218.245 257.26 217.863 257.917 C 217.481 258.572 216.8 259.204 216.349 259.32 C 215.896 259.437 215.527 259.669 215.527 259.836 C 215.527 260.326 211.107 264.719 210.616 264.719 C 210.369 264.719 210.167 264.991 210.167 265.324 C 210.167 265.658 209.519 266.343 208.73 266.848 C 207.939 267.353 207.289 268.001 207.286 268.287 C 207.283 268.575 206.632 269.187 205.838 269.648 C 205.045 270.109 204.395 270.752 204.395 271.075 C 204.395 271.399 203.87 271.961 203.229 272.324 C 202.587 272.686 201.761 273.501 201.392 274.133 C 201.025 274.766 200.482 275.285 200.189 275.288 C 199.894 275.291 199.234 275.931 198.722 276.71 C 198.209 277.489 197.514 278.127 197.176 278.127 C 196.838 278.127 196.561 278.297 196.561 278.507 C 196.561 279.001 192.09 283.409 191.588 283.409 C 191.375 283.409 191.202 283.681 191.202 284.014 C 191.202 284.347 190.554 285.033 189.764 285.538 C 188.974 286.042 188.324 286.692 188.321 286.983 C 188.318 287.272 187.768 287.819 187.101 288.197 C 186.432 288.575 185.693 289.301 185.458 289.809 C 185.222 290.318 184.608 290.923 184.091 291.156 C 183.576 291.387 182.839 292.115 182.455 292.775 C 182.072 293.433 181.517 293.974 181.223 293.977 C 180.929 293.98 180.269 294.62 179.756 295.399 C 179.244 296.178 178.549 296.816 178.211 296.816 C 177.873 296.816 177.596 296.987 177.596 297.196 C 177.596 297.652 173.145 302.098 172.688 302.098 C 172.513 302.098 172.157 302.558 171.897 303.12 C 171.637 303.682 170.997 304.334 170.473 304.568 C 169.951 304.803 169.346 305.394 169.128 305.883 C 168.91 306.371 168.313 306.951 167.801 307.173 C 167.289 307.394 166.766 307.899 166.638 308.295 C 166.51 308.69 165.899 309.272 165.279 309.588 C 164.658 309.904 163.942 310.618 163.684 311.174 C 163.427 311.73 162.865 312.295 162.432 312.43 C 162.002 312.565 161.413 313.109 161.125 313.64 C 160.838 314.17 160.18 314.827 159.663 315.1 C 159.144 315.372 158.495 316.012 158.219 316.522 C 157.943 317.032 157.272 317.682 156.731 317.968 C 156.188 318.253 155.746 318.733 155.746 319.034 C 155.746 319.335 155.196 319.91 154.525 320.312 C 153.853 320.715 152.912 321.534 152.433 322.135 C 151.955 322.735 151.262 323.225 150.893 323.225 C 150.525 323.225 147.316 326.151 143.765 329.726 C 140.211 333.302 137.153 336.227 136.969 336.227 C 136.786 336.227 136.137 336.813 135.53 337.53 C 134.442 338.814 134.42 338.82 133.956 337.966 C 133.561 337.24 133.647 336.907 134.487 335.924 C 135.038 335.278 135.611 334.275 135.759 333.693 C 135.907 333.111 136.662 331.666 137.435 330.483 C 138.209 329.3 138.842 328.131 138.842 327.887 C 138.842 327.642 139.167 327.086 139.564 326.652 C 139.96 326.217 140.739 325.041 141.296 324.036 C 141.851 323.031 142.732 321.59 143.255 320.832 C 143.775 320.075 144.201 319.23 144.201 318.952 C 144.201 318.676 144.459 318.238 144.774 317.981 C 145.089 317.723 145.559 316.65 145.818 315.595 C 146.453 313.014 147.11 311.443 147.555 311.443 C 147.757 311.443 148.364 310.461 148.901 309.26 C 149.441 308.059 150.103 306.943 150.373 306.778 C 150.645 306.613 151.234 305.63 151.684 304.593 C 152.135 303.556 152.838 302.342 153.249 301.895 C 153.659 301.448 154.218 300.396 154.49 299.556 C 154.763 298.716 155.31 297.858 155.706 297.65 C 156.101 297.441 156.648 296.537 156.92 295.64 C 157.193 294.743 157.846 293.498 158.371 292.873 C 158.895 292.249 159.534 291.13 159.792 290.387 C 160.048 289.644 160.728 288.487 161.301 287.816 C 161.872 287.145 162.342 286.361 162.342 286.074 C 162.342 285.786 162.912 284.846 163.608 283.982 C 164.303 283.119 164.975 281.908 165.101 281.291 C 165.225 280.674 165.742 279.756 166.245 279.25 C 166.749 278.744 167.494 277.461 167.9 276.4 C 168.306 275.339 168.785 274.47 168.964 274.47 C 169.143 274.47 169.789 273.419 170.398 272.134 C 171.007 270.849 171.835 269.432 172.236 268.985 C 172.638 268.538 173.106 267.718 173.279 267.163 C 173.45 266.607 174.101 265.51 174.724 264.725 C 175.348 263.94 176.078 262.611 176.346 261.773 C 176.615 260.935 177.017 260.25 177.239 260.25 C 177.461 260.25 178.097 259.234 178.654 257.993 C 179.212 256.753 180.021 255.363 180.453 254.906 C 180.884 254.449 181.355 253.614 181.499 253.051 C 181.642 252.487 182.295 251.363 182.95 250.551 C 183.605 249.74 184.264 248.581 184.413 247.976 C 184.564 247.37 184.956 246.655 185.285 246.386 C 185.613 246.117 186.265 245.058 186.732 244.033 C 187.198 243.009 187.898 241.804 188.283 241.357 C 188.671 240.91 189.342 239.722 189.777 238.716 C 190.21 237.71 190.893 236.649 191.296 236.357 C 191.698 236.065 192.026 235.485 192.026 235.068 C 192.026 234.65 192.647 233.508 193.405 232.53 C 194.162 231.552 194.906 230.263 195.059 229.667 C 195.21 229.07 195.692 228.254 196.127 227.854 C 196.562 227.454 197.317 226.214 197.8 225.1 C 198.285 223.986 198.915 222.946 199.198 222.789 C 199.483 222.632 199.965 221.718 200.273 220.758 C 200.578 219.797 201.187 218.614 201.623 218.128 C 202.06 217.643 202.854 216.317 203.387 215.182 C 203.921 214.048 204.539 213.119 204.761 213.119 C 204.983 213.119 205.293 212.708 205.451 212.205 C 205.609 211.703 206.363 210.012 207.127 208.448 C 209.222 204.168 208.839 202.53 204.807 198.513 C 201.773 195.49 203.181 195.577 161.517 195.847 C 141.45 195.976 122.568 196.096 119.56 196.111 C 110.951 196.156 109.377 195.061 112.214 191.001 C 113.027 189.838 113.692 188.698 113.692 188.469 C 113.692 188.239 114.231 187.319 114.889 186.423 C 116.062 184.828 117.654 181.407 118.918 177.772 C 119.267 176.766 119.957 175.578 120.451 175.131 C 120.944 174.684 121.594 173.587 121.898 172.693 C 122.201 171.799 122.802 170.685 123.235 170.218 C 124.042 169.344 125.316 167.181 126.918 163.958 C 127.418 162.952 128.265 161.612 128.799 160.981 C 129.334 160.349 129.889 159.343 130.032 158.746 C 130.174 158.149 130.637 157.284 131.06 156.824 C 131.88 155.93 133.673 152.786 135.157 149.636 C 135.657 148.574 136.203 147.706 136.371 147.706 C 136.539 147.706 137.303 146.497 138.067 145.019 C 140.984 139.392 141.541 138.403 142.202 137.682 C 142.576 137.273 143.181 136.227 143.546 135.356 C 143.911 134.485 144.672 133.318 145.236 132.761 C 145.801 132.205 146.263 131.373 146.263 130.913 C 146.263 130.453 146.702 129.61 147.24 129.039 C 147.777 128.468 148.547 127.124 148.952 126.051 C 149.357 124.98 149.985 123.946 150.347 123.755 C 150.71 123.564 151.253 122.585 151.555 121.579 C 151.855 120.574 152.551 119.335 153.1 118.828 C 153.648 118.321 154.097 117.689 154.097 117.425 C 154.097 117.162 154.931 116.099 155.951 115.064 C 156.972 114.029 157.807 112.92 157.807 112.599 C 157.807 112.277 158.241 111.498 158.773 110.866 C 159.304 110.234 160.034 108.895 160.394 107.889 C 161.835 103.87 163.287 100.747 163.985 100.169 C 164.389 99.834 164.94 98.877 165.209 98.043 C 165.479 97.209 166.243 96.021 166.907 95.404 C 167.571 94.786 168.114 94.083 168.114 93.842 C 168.114 93.602 168.597 92.961 169.189 92.419 C 169.781 91.877 170.719 90.52 171.276 89.403 C 172.729 86.489 174.194 83.872 175.029 82.699 C 175.428 82.14 176.029 81.14 176.366 80.476 C 176.703 79.812 177.581 78.377 178.318 77.286 C 179.055 76.196 179.658 75.127 179.658 74.911 C 179.658 74.696 180.092 73.937 180.623 73.225 C 181.154 72.514 181.833 71.292 182.132 70.51 C 182.432 69.728 182.996 68.722 183.386 68.275 C 183.775 67.828 184.461 66.64 184.908 65.634 C 185.356 64.629 186.12 63.458 186.607 63.032 C 187.094 62.606 187.492 62.035 187.492 61.76 C 187.492 61.487 188.141 60.201 188.934 58.902 C 189.728 57.603 190.377 56.329 190.377 56.072 C 190.377 55.814 190.731 55.287 191.164 54.901 C 191.597 54.516 192.329 53.333 192.791 52.272 C 194.249 48.934 189.819 49.205 246.861 48.972 C 274.865 48.858 298.376 48.721 299.106 48.667 C 300.286 48.581 300.476 48.718 300.809 49.89" stroke="none" fill-rule="evenodd" fill="#f5c005" style=""/>
  </g>
</svg>